<?xml version="1.0" encoding="UTF-8" standalone="no"?>
<!-- Created with Inkscape (http://www.inkscape.org/) -->

<svg
   width="98.935638mm"
   height="76.2005mm"
   viewBox="0 0 98.935638 76.2005"
   version="1.1"
   id="svg5"
   xml:space="preserve"
   xmlns="http://www.w3.org/2000/svg"
   xmlns:svg="http://www.w3.org/2000/svg"><defs
     id="defs2"><clipPath
       clipPathUnits="userSpaceOnUse"
       id="clipPath82"><path
         d="M 0,252 H 316.447 V 0 H 0 Z"
         id="path80" /></clipPath></defs><g
     id="layer1"
     transform="translate(-27.646289,-100.63829)" /><g
     id="g76"
     transform="matrix(0.35277776,0,0,-0.35277778,-6.3499997,82.549935)"><g
       id="g78"
       clip-path="url(#clipPath82)"><g
         id="g84"
         transform="translate(42.279,70.1633)"><path
           d="m 0,0 v -3.995 c 0,-1.128 -0.397,-2.088 -1.191,-2.881 -0.795,-0.795 -1.755,-1.191 -2.881,-1.191 -1.127,0 -2.088,0.396 -2.881,1.191 -0.795,0.793 -1.191,1.753 -1.191,2.881 V 0 c 0,1.126 -0.257,2.023 -0.769,2.689 -0.718,0.922 -1.793,1.383 -3.227,1.383 -1.486,0 -2.535,-0.397 -3.15,-1.191 C -15.904,2.086 -16.212,1.126 -16.212,0 v -32.27 c 0,-1.179 0.294,-2.151 0.884,-2.919 0.588,-0.769 1.652,-1.153 3.188,-1.153 1.434,0 2.509,0.435 3.227,1.306 0.512,0.665 0.769,1.562 0.769,2.689 v 4.072 c 0,1.127 0.384,2.075 1.152,2.843 0.769,0.769 1.741,1.153 2.92,1.153 1.075,0 2.023,-0.384 2.843,-1.153 C -0.411,-26.2 0,-27.148 0,-28.275 v -4.072 c 0,-2.971 -0.897,-5.583 -2.689,-7.837 -2.255,-2.869 -5.405,-4.302 -9.451,-4.302 -4.046,0 -7.171,1.408 -9.373,4.226 -1.844,2.355 -2.766,4.994 -2.766,7.913 V 0 c 0,3.022 0.895,5.659 2.689,7.914 2.202,2.816 5.352,4.226 9.45,4.226 4.046,0 7.171,-1.41 9.374,-4.226 C -0.922,5.609 0,2.97 0,0"
           style="fill:#231f20;fill-opacity:1;fill-rule:nonzero;stroke:none"
           id="path86" /></g><g
         id="g88"
         transform="translate(62.639,70.1633)"><path
           d="m 0,0 c 0,1.126 -0.257,2.023 -0.768,2.689 -0.718,0.922 -1.794,1.383 -3.227,1.383 -1.486,0 -2.536,-0.397 -3.15,-1.191 C -7.76,2.086 -8.067,1.126 -8.067,0 v -32.27 c 0,-1.179 0.294,-2.151 0.883,-2.919 0.588,-0.769 1.652,-1.153 3.189,-1.153 1.433,0 2.509,0.435 3.227,1.306 0.511,0.665 0.768,1.562 0.768,2.689 z m 8.144,0 v -32.347 c 0,-2.971 -0.897,-5.583 -2.689,-7.837 -2.254,-2.869 -5.404,-4.302 -9.45,-4.302 -4.047,0 -7.172,1.408 -9.374,4.226 -1.844,2.355 -2.766,4.994 -2.766,7.913 V 0 c 0,3.022 0.896,5.659 2.689,7.914 2.202,2.816 5.352,4.226 9.451,4.226 4.046,0 7.17,-1.41 9.373,-4.226 C 7.222,5.609 8.144,2.97 8.144,0"
           style="fill:#231f20;fill-opacity:1;fill-rule:nonzero;stroke:none"
           id="path90" /></g><g
         id="g92"
         transform="translate(99.2874,70.1633)"><path
           d="m 0,0 v -40.414 c 0,-1.127 -0.397,-2.088 -1.191,-2.881 -0.794,-0.795 -1.755,-1.191 -2.881,-1.191 -1.127,0 -2.088,0.396 -2.881,1.191 -0.795,0.793 -1.191,1.754 -1.191,2.881 V 0 c 0,1.126 -0.257,2.023 -0.769,2.689 -0.717,0.922 -1.793,1.383 -3.226,1.383 -1.487,0 -2.536,-0.397 -3.15,-1.191 C -15.904,2.086 -16.211,1.126 -16.211,0 v -40.414 c 0,-1.127 -0.398,-2.088 -1.191,-2.881 -0.795,-0.795 -1.756,-1.191 -2.882,-1.191 -1.127,0 -2.074,0.384 -2.842,1.152 -0.769,0.769 -1.153,1.741 -1.153,2.92 V 0 c 0,3.022 0.896,5.659 2.689,7.914 2.202,2.816 5.352,4.226 9.451,4.226 4.045,0 7.17,-1.41 9.373,-4.226 C -0.922,5.609 0,2.97 0,0"
           style="fill:#231f20;fill-opacity:1;fill-rule:nonzero;stroke:none"
           id="path94" /></g><g
         id="g96"
         transform="translate(129.9712,66.1681)"><path
           d="m 0,0 v -36.419 c 0,-1.127 -0.397,-2.087 -1.191,-2.881 -0.794,-0.795 -1.755,-1.191 -2.881,-1.191 -1.127,0 -2.088,0.396 -2.881,1.191 -0.795,0.794 -1.191,1.754 -1.191,2.881 V 0 c 0,1.126 0.384,2.074 1.152,2.843 0.769,0.768 1.741,1.152 2.92,1.152 1.076,0 2.023,-0.384 2.843,-1.152 C -0.41,2.074 0,1.126 0,0 M 0,12.063 C 0,10.935 -0.384,9.988 -1.152,9.22 -1.921,8.451 -2.894,8.067 -4.072,8.067 c -1.076,0 -2.024,0.384 -2.843,1.153 -0.82,0.768 -1.229,1.715 -1.229,2.843 0,1.177 0.384,2.151 1.152,2.919 0.769,0.769 1.741,1.153 2.92,1.153 1.126,0 2.087,-0.398 2.881,-1.191 C -0.397,14.149 0,13.189 0,12.063"
           style="fill:#231f20;fill-opacity:1;fill-rule:nonzero;stroke:none"
           id="path98" /></g><g
         id="g100"
         transform="translate(150.3308,45.8841)"><path
           d="m 0,0 v 24.279 c 0,1.126 -0.257,2.023 -0.768,2.689 -0.718,0.922 -1.794,1.383 -3.227,1.383 -1.487,0 -2.536,-0.397 -3.15,-1.191 -0.615,-0.794 -0.922,-1.755 -0.922,-2.881 V 4.149 c 0,-1.179 0.294,-2.164 0.883,-2.958 C -6.596,0.396 -5.532,0 -3.995,0 Z M 8.144,24.279 V -8.067 c 0,-4.047 -1.409,-7.172 -4.226,-9.374 -2.408,-1.844 -5.045,-2.766 -7.913,-2.766 h -4.072 c -1.128,0 -2.088,0.396 -2.882,1.191 -0.794,0.794 -1.191,1.754 -1.191,2.881 0,1.126 0.397,2.087 1.191,2.881 0.794,0.794 1.754,1.191 2.882,1.191 h 3.995 c 1.126,0 2.023,0.256 2.689,0.769 0.922,0.665 1.383,1.74 1.383,3.227 h -3.995 c -4.047,0 -7.172,1.408 -9.374,4.225 -1.844,2.356 -2.766,4.994 -2.766,7.914 v 20.207 c 0,3.022 0.896,5.659 2.689,7.914 2.202,2.816 5.352,4.226 9.451,4.226 4.046,0 7.17,-1.41 9.373,-4.226 1.844,-2.305 2.766,-4.944 2.766,-7.914"
           style="fill:#231f20;fill-opacity:1;fill-rule:nonzero;stroke:none"
           id="path102" /></g><g
         id="g104"
         transform="translate(178.8349,70.1633)"><path
           d="m 0,0 c 0,1.126 -0.257,2.023 -0.768,2.689 -0.718,0.922 -1.794,1.383 -3.227,1.383 -1.486,0 -2.536,-0.397 -3.15,-1.191 C -7.76,2.086 -8.067,1.126 -8.067,0 v -32.27 c 0,-1.179 0.294,-2.151 0.883,-2.919 0.589,-0.769 1.652,-1.153 3.189,-1.153 1.433,0 2.509,0.435 3.227,1.306 0.511,0.665 0.768,1.562 0.768,2.689 z m 8.144,0 v -32.347 c 0,-2.971 -0.897,-5.583 -2.689,-7.837 -2.254,-2.869 -5.404,-4.302 -9.45,-4.302 -4.047,0 -7.172,1.408 -9.374,4.226 -1.844,2.355 -2.766,4.994 -2.766,7.913 V 0 c 0,3.022 0.896,5.659 2.689,7.914 2.202,2.816 5.352,4.226 9.451,4.226 4.046,0 7.171,-1.41 9.373,-4.226 C 7.222,5.609 8.144,2.97 8.144,0"
           style="fill:#231f20;fill-opacity:1;fill-rule:nonzero;stroke:none"
           id="path106" /></g><g
         id="g108"
         transform="translate(182.0805,91.4244)"><path
           d="m 0,0 c -1.004,0.413 -2.003,0.75 -2.962,1.028 -0.336,2.171 -3.719,3.878 -7.844,3.878 -0.893,0 -1.751,-0.081 -2.551,-0.229 -0.708,1.351 -2.12,2.273 -3.75,2.273 -0.935,0 -1.796,-0.306 -2.497,-0.82 -1.837,0.884 -4.856,1.461 -8.273,1.461 -2.394,0 -4.594,-0.284 -6.328,-0.758 -1.425,1.367 -5.406,2.35 -10.097,2.35 -3.101,0 -5.891,-0.43 -7.839,-1.116 -1.505,1.272 -5.167,2.171 -9.449,2.171 -3.669,0 -6.885,-0.66 -8.677,-1.649 -0.629,0.663 -1.568,1.086 -2.619,1.086 -0.877,0 -1.674,-0.296 -2.281,-0.779 -2.558,0.81 -6.167,1.315 -10.169,1.315 -5.549,0 -10.345,-0.97 -12.626,-2.378 -2.046,0.835 -4.973,1.359 -8.225,1.359 -4.859,0 -8.994,-1.168 -10.548,-2.801 -0.645,0.751 -1.88,1.259 -3.299,1.259 -1.039,0 -1.98,-0.272 -2.663,-0.713 -1.556,0.39 -3.417,0.617 -5.418,0.617 -4.993,0 -9.12,-1.412 -9.795,-3.247 -1.343,0.553 -3.122,0.891 -5.073,0.891 -3.867,0 -7.056,-1.326 -7.519,-3.037 -1.859,-0.206 -5.243,-0.749 -8.678,-2.161 -4.899,-2.013 -4.899,-4.647 -4.899,-4.647 h 5.733 1.689 81.29 v -60.364 c -1.088,-0.967 -2.357,-1.718 -3.768,-1.884 -9.363,-1.107 -8.471,-3.299 -8.471,-3.299 0,0 1.08,1.237 3.734,1.119 1.392,-0.034 2.015,-0.588 2.015,-0.588 0,0 -0.651,-0.476 -1.771,-1.394 -1.469,-1.203 -1.439,-2.369 -1.439,-2.369 0,0 2.154,2.406 4.383,2.59 1.58,0.131 3.497,-0.775 6.181,-0.499 2.012,0.162 3.208,1.022 3.208,1.022 0,0 1.197,-0.86 3.208,-1.022 2.684,-0.276 4.602,0.63 6.181,0.499 2.229,-0.184 4.383,-2.59 4.383,-2.59 0,0 0.03,1.166 -1.438,2.369 -1.121,0.918 -1.771,1.394 -1.771,1.394 0,0 0.622,0.554 2.014,0.588 2.654,0.118 3.734,-1.119 3.734,-1.119 0,0 0.893,2.192 -8.471,3.299 -1.411,0.166 -2.68,0.917 -3.768,1.884 v 60.364 h 64.699 1.329 6.094 c 0,0 0,2.634 -4.899,4.647"
           style="fill:#231f20;fill-opacity:1;fill-rule:nonzero;stroke:none"
           id="path110" /></g><g
         id="g112"
         transform="translate(182.6106,232.4569)"><path
           d="m 0,0 c -4.339,3.432 -9.209,0.245 -15.494,-1 -7.428,-1.471 -13.328,-4.355 -25.111,-12.635 -15.323,-10.767 -29.777,-32.892 -36.129,-43.434 v 8.504 c 0,0.808 -0.441,1.511 -1.094,1.887 0.354,1.12 1.63,4.654 4.295,6.988 3.145,2.754 6.971,-0.152 6.976,4.015 0.002,1.977 -2.391,2.567 -6.435,1.095 -3.711,-1.352 -7.129,-8.341 -7.129,-8.341 0,0 -3.418,6.989 -7.129,8.341 -4.044,1.472 -6.437,0.882 -6.435,-1.095 0.005,-4.167 3.832,-1.261 6.976,-4.015 2.665,-2.334 3.942,-5.868 4.295,-6.988 -0.653,-0.376 -1.094,-1.079 -1.094,-1.887 v -8.504 c -6.352,10.542 -20.806,32.667 -36.129,43.434 -11.783,8.28 -17.683,11.164 -25.111,12.635 -6.285,1.245 -11.155,4.432 -15.494,1 -4.466,-3.533 -3.512,-7.134 2.069,-23.245 4.742,-13.689 1.232,-30.71 10.318,-38.197 10.458,-8.619 21.36,-9.338 21.36,-9.338 0,0 -17.473,-8.4 -15.182,-30.095 2.007,-19.008 15.348,-24.288 23.258,-24.288 21.015,0 38.298,39.002 38.298,39.002 0,0 17.283,-39.002 38.298,-39.002 7.91,0 21.251,5.28 23.258,24.288 2.291,21.695 -15.182,30.095 -15.182,30.095 0,0 10.902,0.719 21.36,9.338 9.086,7.487 5.576,24.508 10.318,38.197 C 3.512,-7.134 4.466,-3.533 0,0"
           style="fill:#231f20;fill-opacity:1;fill-rule:nonzero;stroke:none"
           id="path114" /></g><g
         id="g116"
         transform="translate(26.3437,229.8446)"><path
           d="m 0,0 c 2.901,1.521 8.029,-0.179 13.48,-2.733 5.697,-2.669 11.455,-5.699 10.761,-7.603 -0.774,-2.124 -4.926,-1.855 -8.869,-0.664 -2.069,0.625 -3.864,1.808 -6.798,2.759 -8.179,2.653 -8.343,-4.353 -9.698,-4.622 -1.526,-0.303 -2.376,3.515 -2.32,6.681 0.048,2.709 0.617,4.7 3.444,6.182"
           style="fill:#a6d021;fill-opacity:1;fill-rule:nonzero;stroke:none"
           id="path118" /></g><g
         id="g120"
         transform="translate(33.6894,217.5129)"><path
           d="m 0,0 c 3.56,0.165 6.79,-3.372 5.166,-10.426 -1.222,-5.311 -4.171,-9.185 -5.709,-9.185 -2.125,0 -1.151,5.255 -2.327,9.64 C -3.732,-6.757 -6.382,-0.297 0,0"
           style="fill:#ef8625;fill-opacity:1;fill-rule:nonzero;stroke:none"
           id="path122" /></g><g
         id="g124"
         transform="translate(47.4032,193.1443)"><path
           d="m 0,0 c 4.544,-4.248 7.789,-10.386 5.937,-12.238 -1.926,-1.926 -7.005,-0.11 -11.549,4.138 -4.544,4.247 -6.74,9.282 -4.905,11.244 C -8.683,5.107 -4.544,4.248 0,0"
           style="fill:#e83d2c;fill-opacity:1;fill-rule:nonzero;stroke:none"
           id="path126" /></g><g
         id="g128"
         transform="translate(63.6541,209.1484)"><path
           d="m 0,0 c 0,-2.833 -3.648,-5.401 -6.45,-5.401 -3.588,0 -6.899,3.175 -6.899,6.862 0,4.693 3.066,5.623 5.51,5.623 C -4.251,7.084 0,3.009 0,0"
           style="fill:#e83d2c;fill-opacity:1;fill-rule:nonzero;stroke:none"
           id="path130" /></g><g
         id="g132"
         transform="translate(51.546,204.3274)"><path
           d="M 0,0 C 2.35,-3.022 2.383,-7.062 0.371,-8.479 -2.746,-10.675 -4.687,-8.493 -7.037,-5.472 -9.386,-2.45 -9.716,1.225 -7.773,2.736 -5.83,4.246 -2.35,3.022 0,0"
           style="fill:#e83d2c;fill-opacity:1;fill-rule:nonzero;stroke:none"
           id="path134" /></g><g
         id="g136"
         transform="translate(43.9454,180.9249)"><path
           d="m 0,0 c -0.866,0.213 -5.059,7.914 -8.489,4.884 -3.888,-3.436 4.887,-12.846 9.26,-12.846 2.445,0 4.428,1.634 4.428,3.65 C 5.199,-1.705 1.888,-0.465 0,0"
           style="fill:#e83d2c;fill-opacity:1;fill-rule:nonzero;stroke:none"
           id="path138" /></g><g
         id="g140"
         transform="translate(57.92,184.6211)"><path
           d="m 0,0 c 1.902,0 9.02,-9.517 9.02,-14.522 0,-6.818 -11.383,-5.161 -13.427,-0.974 -2.45,5.018 1.435,10.214 2.899,12.666 C -1.104,-2.152 -2.346,0 0,0"
           style="fill:#e83d2c;fill-opacity:1;fill-rule:nonzero;stroke:none"
           id="path142" /></g><g
         id="g144"
         transform="translate(66.6271,204.3172)"><path
           d="m 0,0 c 5.617,0 11.667,-10.731 11.667,-19.013 0,-9.326 -4.315,-10.2 -7.274,-10.2 -5.521,0 -7.945,6.368 -6.265,13.333 0.972,4.033 0.003,5.005 -0.397,5.005 -1.008,0 -7.345,-5.761 -11.032,-2.925 -2.589,1.993 1.526,7.895 5.091,10.703 C -4.915,-0.501 -2.485,0 0,0"
           style="fill:#e83d2c;fill-opacity:1;fill-rule:nonzero;stroke:none"
           id="path146" /></g><g
         id="g148"
         transform="translate(89.8851,181.1235)"><path
           d="m 0,0 c 0,-3.763 -1.313,-4.245 -2.445,-4.245 -2.425,0 -4.545,2.227 -4.329,5.396 0.17,2.483 -1.638,4.605 -0.522,5.732 C -6.211,7.978 0,4.693 0,0"
           style="fill:#5fc3ab;fill-opacity:1;fill-rule:nonzero;stroke:none"
           id="path150" /></g><g
         id="g152"
         transform="translate(75.5214,171.7385)"><path
           d="m 0,0 c 2.197,1.503 6.19,3.615 8.315,-3.047 2.125,-6.662 2.687,-7.42 1.443,-8.485 -1.371,-1.175 -4.838,0.75 -9.739,1.791 C -3.523,-8.988 -3.866,-2.645 0,0"
           style="fill:#e83d2c;fill-opacity:1;fill-rule:nonzero;stroke:none"
           id="path154" /></g><g
         id="g156"
         transform="translate(96.6658,169.8778)"><path
           d="m 0,0 c 1.283,-3.138 0.858,-6.281 -0.95,-7.02 -1.808,-0.74 -4.183,-0.604 -5.467,2.534 -0.558,1.364 -0.251,2.511 -0.647,4.645 -0.353,1.902 0.091,3.56 1.113,3.978 C -4.143,4.876 -1.283,3.138 0,0"
           style="fill:#5fc3ab;fill-opacity:1;fill-rule:nonzero;stroke:none"
           id="path158" /></g><g
         id="g160"
         transform="translate(89.1081,156.6106)"><path
           d="M 0,0 C 2.254,0.448 9.445,1.385 9.148,-0.841 8.703,-4.175 4.696,-10.932 2.668,-11.179 -0.489,-11.564 -4.004,-8.028 -3.692,-4.428 -3.424,-1.353 -2.254,-0.448 0,0"
           style="fill:#5fc3ab;fill-opacity:1;fill-rule:nonzero;stroke:none"
           id="path162" /></g><g
         id="g164"
         transform="translate(58.0996,133.2372)"><path
           d="M 0,0 C 4.85,3.054 8.853,8.046 7.499,10.043 6.091,12.121 1.179,11.36 -3.671,8.306 -7.751,5.736 -12.217,2.401 -10.064,-1.018 -8.745,-3.113 -4.85,-3.054 0,0"
           style="fill:#c92679;fill-opacity:1;fill-rule:nonzero;stroke:none"
           id="path166" /></g><g
         id="g168"
         transform="translate(69.867,116.5014)"><path
           d="m 0,0 c 0.228,2.601 -2.915,5.251 -5.488,5.476 -3.293,0.289 -6.588,-2.36 -6.884,-5.745 -0.377,-4.308 2.363,-5.408 4.607,-5.604 C -4.472,-6.161 -0.242,-2.762 0,0"
           style="fill:#c92679;fill-opacity:1;fill-rule:nonzero;stroke:none"
           id="path170" /></g><g
         id="g172"
         transform="translate(59.8203,122.5492)"><path
           d="M 0,0 C 2.479,2.405 3.017,6.012 1.396,7.531 -1.114,9.885 -3.122,8.179 -5.602,5.774 -8.081,3.368 -8.837,0.126 -7.29,-1.468 -5.743,-3.063 -2.479,-2.405 0,0"
           style="fill:#c92679;fill-opacity:1;fill-rule:nonzero;stroke:none"
           id="path174" /></g><g
         id="g176"
         transform="translate(56.9405,144.9645)"><path
           d="M 0,0 C -0.819,-0.053 -5.864,-6.353 -8.482,-3.052 -11.236,0.421 -2.169,7.832 1.987,7.09 4.203,6.694 5.735,4.893 5.408,3.066 4.987,0.704 1.786,0.116 0,0"
           style="fill:#c92679;fill-opacity:1;fill-rule:nonzero;stroke:none"
           id="path178" /></g><g
         id="g180"
         transform="translate(68.9701,139.0885)"><path
           d="M 0,0 C 1.726,-0.304 9.709,7.193 10.51,11.735 11.601,17.922 1.005,18.241 -1.52,14.768 -4.546,10.606 -1.852,5.269 -0.916,2.81 -0.657,2.13 -2.129,0.375 0,0"
           style="fill:#c92679;fill-opacity:1;fill-rule:nonzero;stroke:none"
           id="path182" /></g><g
         id="g184"
         transform="translate(73.4692,119.8693)"><path
           d="M 0,0 C 5.093,-0.898 12.294,7.864 13.618,15.374 15.109,23.83 11.337,25.312 8.654,25.785 3.648,26.668 0.432,21.282 0.841,14.698 1.078,10.886 0.044,10.159 -0.318,10.223 -1.232,10.384 -6.058,16.621 -9.854,14.639 -12.52,13.246 -9.732,7.237 -6.949,4.12 -4.376,1.24 -2.253,0.397 0,0"
           style="fill:#c92679;fill-opacity:1;fill-rule:nonzero;stroke:none"
           id="path186" /></g><g
         id="g188"
         transform="translate(178.6349,229.8446)"><path
           d="m 0,0 c -2.901,1.521 -8.029,-0.179 -13.48,-2.733 -5.697,-2.669 -11.455,-5.699 -10.761,-7.603 0.774,-2.124 4.926,-1.855 8.869,-0.664 2.069,0.625 3.864,1.808 6.798,2.759 8.179,2.653 8.343,-4.353 9.698,-4.622 1.526,-0.303 2.376,3.515 2.32,6.681 C 3.396,-3.473 2.827,-1.482 0,0"
           style="fill:#a6d021;fill-opacity:1;fill-rule:nonzero;stroke:none"
           id="path190" /></g><g
         id="g192"
         transform="translate(171.2893,217.5129)"><path
           d="m 0,0 c -3.56,0.165 -6.79,-3.372 -5.166,-10.426 1.222,-5.311 4.171,-9.185 5.709,-9.185 2.125,0 1.151,5.255 2.327,9.64 C 3.732,-6.757 6.382,-0.297 0,0"
           style="fill:#ef8625;fill-opacity:1;fill-rule:nonzero;stroke:none"
           id="path194" /></g><g
         id="g196"
         transform="translate(157.5755,193.1443)"><path
           d="m 0,0 c -4.544,-4.248 -7.789,-10.386 -5.937,-12.238 1.926,-1.926 7.005,-0.11 11.549,4.138 4.544,4.247 6.74,9.282 4.905,11.244 C 8.683,5.107 4.544,4.248 0,0"
           style="fill:#e83d2c;fill-opacity:1;fill-rule:nonzero;stroke:none"
           id="path198" /></g><g
         id="g200"
         transform="translate(141.3245,209.1484)"><path
           d="m 0,0 c 0,-2.833 3.648,-5.401 6.45,-5.401 3.588,0 6.899,3.175 6.899,6.862 0,4.693 -3.066,5.623 -5.51,5.623 C 4.251,7.084 0,3.009 0,0"
           style="fill:#e83d2c;fill-opacity:1;fill-rule:nonzero;stroke:none"
           id="path202" /></g><g
         id="g204"
         transform="translate(153.4327,204.3274)"><path
           d="M 0,0 C -2.35,-3.022 -2.383,-7.062 -0.371,-8.479 2.746,-10.675 4.687,-8.493 7.037,-5.472 9.386,-2.45 9.716,1.225 7.773,2.736 5.83,4.246 2.35,3.022 0,0"
           style="fill:#e83d2c;fill-opacity:1;fill-rule:nonzero;stroke:none"
           id="path206" /></g><g
         id="g208"
         transform="translate(161.0333,180.9249)"><path
           d="m 0,0 c 0.866,0.213 5.059,7.914 8.489,4.884 3.888,-3.436 -4.887,-12.846 -9.26,-12.846 -2.445,0 -4.428,1.634 -4.428,3.65 0,2.607 3.311,3.847 5.199,4.312"
           style="fill:#e83d2c;fill-opacity:1;fill-rule:nonzero;stroke:none"
           id="path210" /></g><g
         id="g212"
         transform="translate(147.0587,184.6211)"><path
           d="m 0,0 c -1.902,0 -9.02,-9.517 -9.02,-14.522 0,-6.818 11.383,-5.161 13.427,-0.974 C 6.857,-10.478 2.972,-5.282 1.508,-2.83 1.104,-2.152 2.346,0 0,0"
           style="fill:#e83d2c;fill-opacity:1;fill-rule:nonzero;stroke:none"
           id="path214" /></g><g
         id="g216"
         transform="translate(138.3515,204.3172)"><path
           d="m 0,0 c -5.617,0 -11.667,-10.731 -11.667,-19.013 0,-9.326 4.315,-10.2 7.274,-10.2 5.521,0 7.945,6.368 6.265,13.333 -0.972,4.033 -0.003,5.005 0.397,5.005 1.008,0 7.345,-5.761 11.032,-2.925 2.589,1.993 -1.526,7.895 -5.091,10.703 C 4.915,-0.501 2.485,0 0,0"
           style="fill:#e83d2c;fill-opacity:1;fill-rule:nonzero;stroke:none"
           id="path218" /></g><g
         id="g220"
         transform="translate(115.0935,181.1235)"><path
           d="m 0,0 c 0,-3.763 1.313,-4.245 2.445,-4.245 2.425,0 4.545,2.227 4.329,5.396 C 6.604,3.634 8.412,5.756 7.296,6.883 6.211,7.978 0,4.693 0,0"
           style="fill:#5fc3ab;fill-opacity:1;fill-rule:nonzero;stroke:none"
           id="path222" /></g><g
         id="g224"
         transform="translate(129.4573,171.7385)"><path
           d="m 0,0 c -2.197,1.503 -6.19,3.615 -8.315,-3.047 -2.125,-6.662 -2.687,-7.42 -1.443,-8.485 1.371,-1.175 4.838,0.75 9.739,1.791 C 3.523,-8.988 3.866,-2.645 0,0"
           style="fill:#e83d2c;fill-opacity:1;fill-rule:nonzero;stroke:none"
           id="path226" /></g><g
         id="g228"
         transform="translate(108.3129,169.8778)"><path
           d="m 0,0 c -1.283,-3.138 -0.858,-6.281 0.95,-7.02 1.808,-0.74 4.183,-0.604 5.467,2.534 0.558,1.364 0.251,2.511 0.647,4.645 C 7.417,2.061 6.973,3.719 5.951,4.137 4.143,4.876 1.283,3.138 0,0"
           style="fill:#5fc3ab;fill-opacity:1;fill-rule:nonzero;stroke:none"
           id="path230" /></g><g
         id="g232"
         transform="translate(115.8706,156.6106)"><path
           d="m 0,0 c -2.254,0.448 -9.445,1.385 -9.148,-0.841 0.445,-3.334 4.452,-10.091 6.48,-10.338 3.157,-0.385 6.672,3.151 6.36,6.751 C 3.424,-1.353 2.254,-0.448 0,0"
           style="fill:#5fc3ab;fill-opacity:1;fill-rule:nonzero;stroke:none"
           id="path234" /></g><g
         id="g236"
         transform="translate(146.879,133.2372)"><path
           d="m 0,0 c -4.85,3.054 -8.853,8.046 -7.499,10.043 1.408,2.078 6.32,1.317 11.17,-1.737 4.08,-2.57 8.546,-5.905 6.393,-9.324 C 8.745,-3.113 4.85,-3.054 0,0"
           style="fill:#c92679;fill-opacity:1;fill-rule:nonzero;stroke:none"
           id="path238" /></g><g
         id="g240"
         transform="translate(135.1117,116.5014)"><path
           d="M 0,0 C -0.228,2.601 2.915,5.251 5.488,5.476 8.781,5.765 12.076,3.116 12.372,-0.269 12.749,-4.577 10.009,-5.677 7.765,-5.873 4.472,-6.161 0.242,-2.762 0,0"
           style="fill:#c92679;fill-opacity:1;fill-rule:nonzero;stroke:none"
           id="path242" /></g><g
         id="g244"
         transform="translate(145.1583,122.5492)"><path
           d="M 0,0 C -2.479,2.405 -3.017,6.012 -1.396,7.531 1.114,9.885 3.122,8.179 5.602,5.774 8.081,3.368 8.837,0.126 7.29,-1.468 5.743,-3.063 2.479,-2.405 0,0"
           style="fill:#c92679;fill-opacity:1;fill-rule:nonzero;stroke:none"
           id="path246" /></g><g
         id="g248"
         transform="translate(148.0381,144.9645)"><path
           d="M 0,0 C 0.819,-0.053 5.864,-6.353 8.482,-3.052 11.236,0.421 2.169,7.832 -1.987,7.09 -4.203,6.694 -5.735,4.893 -5.408,3.066 -4.987,0.704 -1.786,0.116 0,0"
           style="fill:#c92679;fill-opacity:1;fill-rule:nonzero;stroke:none"
           id="path250" /></g><g
         id="g252"
         transform="translate(136.0085,139.0885)"><path
           d="m 0,0 c -1.726,-0.304 -9.709,7.193 -10.51,11.735 -1.091,6.187 9.505,6.506 12.03,3.033 C 4.546,10.606 1.852,5.269 0.916,2.81 0.657,2.13 2.129,0.375 0,0"
           style="fill:#c92679;fill-opacity:1;fill-rule:nonzero;stroke:none"
           id="path254" /></g><g
         id="g256"
         transform="translate(131.5094,119.8693)"><path
           d="m 0,0 c -5.093,-0.898 -12.294,7.864 -13.618,15.374 -1.491,8.456 2.281,9.938 4.964,10.411 5.006,0.883 8.222,-4.503 7.813,-11.087 -0.237,-3.812 0.797,-4.539 1.159,-4.475 0.915,0.161 5.74,6.398 9.536,4.416 C 12.52,13.246 9.732,7.237 6.949,4.12 4.376,1.24 2.253,0.397 0,0"
           style="fill:#c92679;fill-opacity:1;fill-rule:nonzero;stroke:none"
           id="path258" /></g><g
         id="g260"
         transform="translate(220.9285,37.8161)"><path
           d="m 0,0 v 24.279 h -3.995 c -1.486,0 -2.536,-0.398 -3.15,-1.191 -0.615,-0.795 -0.922,-1.755 -0.922,-2.881 V 0.077 c 0,-1.179 0.294,-2.151 0.883,-2.919 0.589,-0.769 1.652,-1.153 3.189,-1.153 1.433,0 2.509,0.435 3.227,1.306 C -0.257,-2.024 0,-1.127 0,0 M 8.144,32.346 V 0 c 0,-2.971 -0.897,-5.583 -2.689,-7.837 -2.255,-2.868 -5.405,-4.302 -9.45,-4.302 -4.047,0 -7.172,1.408 -9.373,4.226 -1.845,2.355 -2.766,4.994 -2.766,7.913 v 20.207 c 0,3.021 0.895,5.659 2.689,7.913 2.201,2.816 5.351,4.226 9.45,4.226 H 0 c 0,1.485 -0.397,2.535 -1.191,3.15 -0.795,0.614 -1.728,0.922 -2.804,0.922 h -4.072 c -1.076,0 -2.024,0.384 -2.843,1.152 -0.82,0.768 -1.229,1.716 -1.229,2.843 0,1.178 0.384,2.151 1.152,2.919 0.769,0.769 1.741,1.153 2.92,1.153 h 4.072 c 2.97,0 5.582,-0.897 7.836,-2.689 2.868,-2.254 4.303,-5.404 4.303,-9.45"
           style="fill:#231f20;fill-opacity:1;fill-rule:nonzero;stroke:none"
           id="path262" /></g><g
         id="g264"
         transform="translate(257.5758,70.1619)"><path
           d="m 0,0 v -3.995 c 0,-1.128 -0.397,-2.088 -1.191,-2.881 -0.795,-0.795 -1.755,-1.191 -2.881,-1.191 -1.127,0 -2.088,0.396 -2.881,1.191 -0.795,0.793 -1.191,1.753 -1.191,2.881 V 0 c 0,1.126 -0.257,2.022 -0.768,2.689 -0.718,0.922 -1.794,1.383 -3.227,1.383 -1.487,0 -2.535,-0.398 -3.15,-1.191 C -15.904,2.087 -16.211,1.126 -16.211,0 v -7.991 c 0,-1.179 0.294,-2.164 0.883,-2.957 0.588,-0.795 1.652,-1.191 3.189,-1.191 4.045,0 7.17,-1.41 9.373,-4.226 C -0.922,-18.67 0,-21.309 0,-24.278 v -8.068 c 0,-2.971 -0.897,-5.583 -2.689,-7.836 -2.255,-2.869 -5.405,-4.303 -9.45,-4.303 -4.047,0 -7.172,1.408 -9.374,4.226 -1.843,2.355 -2.766,4.994 -2.766,7.913 v 4.073 c 0,1.125 0.385,2.074 1.153,2.842 0.769,0.769 1.716,1.153 2.843,1.153 1.076,0 2.023,-0.384 2.843,-1.153 0.818,-0.768 1.229,-1.717 1.229,-2.842 v -3.996 c 0,-1.179 0.294,-2.151 0.883,-2.919 0.588,-0.769 1.652,-1.153 3.189,-1.153 1.433,0 2.509,0.435 3.227,1.306 0.511,0.665 0.768,1.562 0.768,2.689 v 8.068 c 0,1.126 -0.257,2.022 -0.768,2.689 -0.718,0.922 -1.794,1.382 -3.227,1.382 -4.047,0 -7.172,1.408 -9.374,4.226 -1.843,2.305 -2.766,4.943 -2.766,7.914 V 0 c 0,3.022 0.896,5.659 2.69,7.914 2.201,2.816 5.351,4.225 9.45,4.225 4.045,0 7.17,-1.409 9.373,-4.225 C -0.922,5.608 0,2.97 0,0"
           style="fill:#231f20;fill-opacity:1;fill-rule:nonzero;stroke:none"
           id="path266" /></g><g
         id="g268"
         transform="translate(269.9445,66.1666)"><path
           d="m 0,0 v -36.417 c 0,-1.128 -0.397,-2.088 -1.191,-2.882 -0.795,-0.795 -1.755,-1.191 -2.881,-1.191 -1.127,0 -2.087,0.396 -2.881,1.191 -0.795,0.794 -1.191,1.754 -1.191,2.882 V 0 c 0,1.126 0.384,2.075 1.153,2.843 0.768,0.768 1.74,1.152 2.919,1.152 1.076,0 2.023,-0.384 2.843,-1.152 C -0.411,2.075 0,1.126 0,0 M 0,12.062 C 0,10.935 -0.384,9.988 -1.152,9.22 -1.921,8.451 -2.894,8.067 -4.072,8.067 c -1.076,0 -2.024,0.384 -2.843,1.153 -0.819,0.768 -1.229,1.715 -1.229,2.842 0,1.178 0.384,2.152 1.153,2.92 0.768,0.768 1.74,1.152 2.919,1.152 1.126,0 2.086,-0.397 2.881,-1.191 C -0.397,14.149 0,13.188 0,12.062"
           style="fill:#231f20;fill-opacity:1;fill-rule:nonzero;stroke:none"
           id="path270" /></g><g
         id="g272"
         transform="translate(290.3035,37.8161)"><path
           d="m 0,0 v 24.279 h -3.995 c -1.486,0 -2.536,-0.398 -3.15,-1.191 -0.615,-0.795 -0.922,-1.755 -0.922,-2.881 V 0.077 c 0,-1.179 0.294,-2.151 0.883,-2.919 0.589,-0.769 1.652,-1.153 3.189,-1.153 1.433,0 2.509,0.435 3.227,1.306 C -0.257,-2.024 0,-1.127 0,0 M 8.144,32.346 V 0 c 0,-2.971 -0.897,-5.583 -2.689,-7.837 -2.255,-2.868 -5.405,-4.302 -9.45,-4.302 -4.047,0 -7.172,1.408 -9.373,4.226 -1.845,2.355 -2.766,4.994 -2.766,7.913 v 20.207 c 0,3.021 0.895,5.659 2.689,7.913 2.201,2.816 5.351,4.226 9.45,4.226 H 0 c 0,1.485 -0.397,2.535 -1.191,3.15 -0.795,0.614 -1.728,0.922 -2.804,0.922 h -4.072 c -1.076,0 -2.024,0.384 -2.843,1.152 -0.82,0.768 -1.229,1.716 -1.229,2.843 0,1.178 0.384,2.151 1.152,2.919 0.769,0.769 1.741,1.153 2.92,1.153 h 4.072 c 2.97,0 5.582,-0.897 7.836,-2.689 2.868,-2.254 4.303,-5.404 4.303,-9.45"
           style="fill:#231f20;fill-opacity:1;fill-rule:nonzero;stroke:none"
           id="path274" /></g></g></g></svg>
