<?xml version="1.0" encoding="UTF-8" standalone="no"?>
<!-- Created with Inkscape (http://www.inkscape.org/) -->

<svg
   width="119.57313mm"
   height="25.4mm"
   viewBox="0 0 119.57313 25.4"
   version="1.1"
   id="svg5"
   xml:space="preserve"
   xmlns="http://www.w3.org/2000/svg"
   xmlns:svg="http://www.w3.org/2000/svg"><defs
     id="defs2"><clipPath
       clipPathUnits="userSpaceOnUse"
       id="clipPath75"><path
         d="M 0,108 H 374.947 V 0 H 0 Z"
         id="path73" /></clipPath></defs><g
     id="layer1"
     transform="translate(-25.672032,-114.49474)" /><g
     id="g69"
     transform="matrix(0.35277776,0,0,-0.35277778,-6.3499753,31.749118)"><g
       id="g71"
       clip-path="url(#clipPath75)"><g
         id="g77"
         transform="translate(141.5771,62.8895)"><path
           d="m 0,0 v -3.438 c 0,-0.97 -0.342,-1.797 -1.025,-2.48 -0.684,-0.684 -1.51,-1.025 -2.479,-1.025 -0.971,0 -1.797,0.341 -2.48,1.025 -0.684,0.683 -1.025,1.51 -1.025,2.48 V 0 c 0,0.969 -0.221,1.741 -0.661,2.314 -0.618,0.794 -1.544,1.19 -2.777,1.19 -1.279,0 -2.182,-0.342 -2.711,-1.024 C -13.687,1.796 -13.952,0.969 -13.952,0 v -27.771 c 0,-1.015 0.254,-1.851 0.761,-2.513 0.506,-0.661 1.421,-0.991 2.744,-0.991 1.233,0 2.159,0.374 2.777,1.124 0.44,0.572 0.661,1.344 0.661,2.314 v 3.504 c 0,0.969 0.331,1.786 0.992,2.447 0.661,0.661 1.498,0.992 2.513,0.992 0.925,0 1.74,-0.331 2.446,-0.992 C -0.353,-22.547 0,-23.364 0,-24.333 v -3.504 c 0,-2.557 -0.772,-4.805 -2.314,-6.744 -1.94,-2.47 -4.651,-3.703 -8.133,-3.703 -3.483,0 -6.172,1.212 -8.067,3.636 -1.587,2.027 -2.38,4.298 -2.38,6.811 V 0 c 0,2.6 0.77,4.87 2.314,6.81 1.895,2.424 4.606,3.637 8.133,3.637 3.482,0 6.171,-1.213 8.067,-3.637 C -0.793,4.827 0,2.556 0,0"
           style="fill:#231f20;fill-opacity:1;fill-rule:nonzero;stroke:none"
           id="path79" /></g><g
         id="g81"
         transform="translate(159.0986,62.8895)"><path
           d="M 0,0 C 0,0.969 -0.221,1.741 -0.661,2.314 -1.279,3.108 -2.205,3.504 -3.438,3.504 -4.717,3.504 -5.62,3.162 -6.149,2.48 -6.678,1.796 -6.943,0.969 -6.943,0 v -27.771 c 0,-1.015 0.253,-1.851 0.761,-2.513 0.506,-0.661 1.421,-0.991 2.744,-0.991 1.233,0 2.159,0.374 2.777,1.124 0.44,0.572 0.661,1.344 0.661,2.314 z m 7.009,0 v -27.837 c 0,-2.557 -0.772,-4.805 -2.314,-6.744 -1.941,-2.47 -4.652,-3.703 -8.133,-3.703 -3.483,0 -6.172,1.212 -8.067,3.636 -1.587,2.027 -2.38,4.298 -2.38,6.811 V 0 c 0,2.6 0.77,4.87 2.314,6.81 1.895,2.424 4.606,3.637 8.133,3.637 3.481,0 6.171,-1.213 8.067,-3.637 C 6.215,4.827 7.009,2.556 7.009,0"
           style="fill:#231f20;fill-opacity:1;fill-rule:nonzero;stroke:none"
           id="path83" /></g><g
         id="g85"
         transform="translate(190.6378,62.8895)"><path
           d="m 0,0 v -34.78 c 0,-0.97 -0.342,-1.796 -1.025,-2.479 -0.684,-0.684 -1.51,-1.025 -2.479,-1.025 -0.97,0 -1.797,0.341 -2.48,1.025 -0.684,0.683 -1.025,1.509 -1.025,2.479 V 0 c 0,0.969 -0.221,1.741 -0.661,2.314 -0.618,0.794 -1.543,1.19 -2.777,1.19 -1.279,0 -2.182,-0.342 -2.711,-1.024 C -13.687,1.796 -13.951,0.969 -13.951,0 v -34.78 c 0,-0.97 -0.342,-1.796 -1.025,-2.479 -0.684,-0.684 -1.511,-1.025 -2.48,-1.025 -0.97,0 -1.785,0.33 -2.446,0.992 -0.661,0.661 -0.992,1.498 -0.992,2.512 V 0 c 0,2.6 0.771,4.87 2.314,6.81 1.895,2.424 4.606,3.637 8.133,3.637 3.482,0 6.171,-1.213 8.067,-3.637 C -0.793,4.827 0,2.556 0,0"
           style="fill:#231f20;fill-opacity:1;fill-rule:nonzero;stroke:none"
           id="path87" /></g><g
         id="g89"
         transform="translate(217.0439,59.4512)"><path
           d="m 0,0 v -31.342 c 0,-0.97 -0.342,-1.796 -1.025,-2.479 -0.684,-0.684 -1.51,-1.025 -2.479,-1.025 -0.97,0 -1.797,0.341 -2.48,1.025 -0.684,0.683 -1.025,1.509 -1.025,2.479 V 0 c 0,0.969 0.331,1.785 0.992,2.446 0.661,0.662 1.498,0.992 2.513,0.992 0.925,0 1.741,-0.33 2.446,-0.992 C -0.353,1.785 0,0.969 0,0 M 0,10.381 C 0,9.411 -0.33,8.596 -0.992,7.935 -1.653,7.273 -2.491,6.943 -3.504,6.943 c -0.926,0 -1.742,0.33 -2.447,0.992 -0.705,0.661 -1.058,1.476 -1.058,2.446 0,1.013 0.331,1.851 0.992,2.513 0.661,0.661 1.498,0.991 2.513,0.991 0.969,0 1.795,-0.342 2.479,-1.024 C -0.342,12.177 0,11.35 0,10.381"
           style="fill:#231f20;fill-opacity:1;fill-rule:nonzero;stroke:none"
           id="path91" /></g><g
         id="g93"
         transform="translate(234.5652,41.9951)"><path
           d="m 0,0 v 20.894 c 0,0.969 -0.221,1.741 -0.661,2.315 -0.618,0.793 -1.544,1.19 -2.777,1.19 -1.279,0 -2.182,-0.342 -2.711,-1.025 -0.529,-0.684 -0.794,-1.511 -0.794,-2.48 V 3.571 c 0,-1.015 0.253,-1.863 0.761,-2.546 C -5.676,0.341 -4.761,0 -3.438,0 Z M 7.009,20.894 V -6.943 c 0,-3.483 -1.213,-6.172 -3.637,-8.067 -2.072,-1.586 -4.342,-2.38 -6.81,-2.38 h -3.505 c -0.97,0 -1.796,0.341 -2.479,1.025 -0.684,0.683 -1.025,1.51 -1.025,2.48 0,0.969 0.341,1.795 1.025,2.479 0.683,0.683 1.509,1.025 2.479,1.025 h 3.438 c 0.97,0 1.742,0.22 2.315,0.661 0.793,0.573 1.19,1.498 1.19,2.777 h -3.438 c -3.483,0 -6.172,1.212 -8.067,3.637 -1.587,2.027 -2.38,4.298 -2.38,6.811 v 17.389 c 0,2.601 0.77,4.871 2.314,6.811 1.895,2.424 4.605,3.637 8.133,3.637 3.481,0 6.171,-1.213 8.067,-3.637 1.586,-1.984 2.38,-4.255 2.38,-6.811"
           style="fill:#231f20;fill-opacity:1;fill-rule:nonzero;stroke:none"
           id="path95" /></g><g
         id="g97"
         transform="translate(259.0955,62.8895)"><path
           d="M 0,0 C 0,0.969 -0.221,1.741 -0.661,2.314 -1.279,3.108 -2.205,3.504 -3.438,3.504 -4.717,3.504 -5.62,3.162 -6.149,2.48 -6.678,1.796 -6.943,0.969 -6.943,0 v -27.771 c 0,-1.015 0.253,-1.851 0.761,-2.513 0.506,-0.661 1.421,-0.991 2.744,-0.991 1.233,0 2.159,0.374 2.777,1.124 0.44,0.572 0.661,1.344 0.661,2.314 z m 7.009,0 v -27.837 c 0,-2.557 -0.772,-4.805 -2.314,-6.744 -1.941,-2.47 -4.652,-3.703 -8.133,-3.703 -3.483,0 -6.172,1.212 -8.067,3.636 -1.587,2.027 -2.38,4.298 -2.38,6.811 V 0 c 0,2.6 0.77,4.87 2.314,6.81 1.895,2.424 4.606,3.637 8.133,3.637 3.481,0 6.171,-1.213 8.067,-3.637 C 6.215,4.827 7.009,2.556 7.009,0"
           style="fill:#231f20;fill-opacity:1;fill-rule:nonzero;stroke:none"
           id="path99" /></g><g
         id="g101"
         transform="translate(261.8886,81.1865)"><path
           d="m 0,0 c -0.864,0.355 -1.724,0.646 -2.549,0.884 -0.289,1.869 -3.2,3.338 -6.751,3.338 -0.768,0 -1.506,-0.07 -2.195,-0.197 -0.609,1.162 -1.825,1.956 -3.227,1.956 -0.805,0 -1.546,-0.264 -2.149,-0.705 -1.581,0.76 -4.179,1.257 -7.119,1.257 -2.061,0 -3.954,-0.245 -5.447,-0.652 -1.226,1.175 -4.651,2.022 -8.689,2.022 -2.668,0 -5.07,-0.37 -6.746,-0.96 -1.295,1.094 -4.446,1.868 -8.131,1.868 -3.159,0 -5.926,-0.568 -7.468,-1.42 -0.541,0.571 -1.349,0.935 -2.254,0.935 -0.754,0 -1.441,-0.255 -1.963,-0.671 -2.201,0.698 -5.307,1.133 -8.752,1.133 -4.775,0 -8.902,-0.835 -10.865,-2.047 -1.761,0.719 -4.28,1.17 -7.079,1.17 -4.181,0 -7.74,-1.006 -9.077,-2.411 -0.555,0.646 -1.618,1.084 -2.839,1.084 -0.894,0 -1.704,-0.235 -2.291,-0.614 -1.34,0.335 -2.942,0.531 -4.664,0.531 -4.296,0 -7.848,-1.216 -8.429,-2.795 -1.156,0.477 -2.686,0.767 -4.365,0.767 -3.329,0 -6.073,-1.14 -6.471,-2.613 -1.6,-0.177 -4.513,-0.645 -7.469,-1.86 -4.216,-1.732 -4.216,-3.999 -4.216,-3.999 h 4.934 1.454 69.957 v -51.949 c -0.936,-0.832 -2.029,-1.478 -3.242,-1.621 -8.059,-0.953 -7.29,-2.839 -7.29,-2.839 0,0 0.929,1.064 3.213,0.963 1.198,-0.029 1.733,-0.506 1.733,-0.506 0,0 -0.559,-0.41 -1.524,-1.2 -1.263,-1.035 -1.238,-2.038 -1.238,-2.038 0,0 1.854,2.07 3.772,2.229 1.36,0.112 3.01,-0.667 5.32,-0.43 1.731,0.139 2.76,0.88 2.76,0.88 0,0 1.03,-0.741 2.761,-0.88 2.31,-0.237 3.96,0.542 5.32,0.43 1.917,-0.159 3.772,-2.229 3.772,-2.229 0,0 0.025,1.003 -1.239,2.038 -0.964,0.79 -1.524,1.2 -1.524,1.2 0,0 0.536,0.477 1.734,0.506 2.284,0.101 3.213,-0.963 3.213,-0.963 0,0 0.769,1.886 -7.29,2.839 -1.214,0.143 -2.306,0.789 -3.242,1.621 v 51.949 h 55.679 1.144 5.244 c 0,0 0,2.267 -4.216,3.999"
           style="fill:#231f20;fill-opacity:1;fill-rule:nonzero;stroke:none"
           id="path103" /></g><g
         id="g105"
         transform="translate(109.213,88.5874)"><path
           d="m 0,0 c -2.427,1.92 -5.151,0.137 -8.667,-0.559 -4.155,-0.823 -7.456,-2.437 -14.047,-7.068 -8.571,-6.023 -16.656,-18.399 -20.21,-24.296 v 4.757 c 0,0.451 -0.246,0.845 -0.612,1.055 0.198,0.627 0.912,2.604 2.403,3.909 1.759,1.541 3.9,-0.085 3.902,2.246 0.001,1.106 -1.337,1.436 -3.599,0.612 -2.076,-0.756 -3.988,-4.666 -3.988,-4.666 0,0 -1.912,3.91 -3.988,4.666 -2.262,0.824 -3.601,0.494 -3.6,-0.612 0.003,-2.331 2.144,-0.705 3.902,-2.246 1.491,-1.305 2.205,-3.282 2.403,-3.909 -0.365,-0.21 -0.612,-0.604 -0.612,-1.055 v -4.757 c -3.553,5.897 -11.638,18.273 -20.21,24.296 -6.591,4.631 -9.892,6.245 -14.046,7.068 -3.516,0.696 -6.241,2.479 -8.668,0.559 -2.498,-1.976 -1.964,-3.991 1.158,-13.003 2.652,-7.657 0.689,-17.178 5.771,-21.367 5.85,-4.821 11.949,-5.223 11.949,-5.223 0,0 -9.774,-4.699 -8.493,-16.835 1.123,-10.632 8.586,-13.586 13.011,-13.586 11.755,0 21.423,21.817 21.423,21.817 0,0 9.667,-21.817 21.423,-21.817 4.425,0 11.887,2.954 13.01,13.586 1.281,12.136 -8.493,16.835 -8.493,16.835 0,0 6.099,0.402 11.949,5.223 5.083,4.189 3.119,13.71 5.772,21.367 C 1.965,-3.991 2.498,-1.976 0,0"
           style="fill:#231f20;fill-opacity:1;fill-rule:nonzero;stroke:none"
           id="path107" /></g><g
         id="g109"
         transform="translate(21.8,87.1261)"><path
           d="m 0,0 c 1.623,0.851 4.491,-0.1 7.54,-1.529 3.187,-1.493 6.408,-3.188 6.02,-4.253 C 13.127,-6.97 10.805,-6.82 8.599,-6.153 7.441,-5.804 6.438,-5.142 4.796,-4.61 0.221,-3.126 0.129,-7.045 -0.629,-7.195 -1.482,-7.365 -1.958,-5.229 -1.926,-3.458 -1.9,-1.943 -1.582,-0.829 0,0"
           style="fill:#a6d021;fill-opacity:1;fill-rule:nonzero;stroke:none"
           id="path111" /></g><g
         id="g113"
         transform="translate(25.909,80.228)"><path
           d="m 0,0 c 1.991,0.093 3.798,-1.886 2.89,-5.832 -0.684,-2.971 -2.334,-5.138 -3.193,-5.138 -1.189,0 -0.644,2.939 -1.302,5.393 C -2.088,-3.78 -3.57,-0.166 0,0"
           style="fill:#ef8625;fill-opacity:1;fill-rule:nonzero;stroke:none"
           id="path115" /></g><g
         id="g117"
         transform="translate(33.5803,66.5966)"><path
           d="m 0,0 c 2.542,-2.376 4.357,-5.81 3.321,-6.846 -1.077,-1.077 -3.919,-0.061 -6.46,2.315 -2.542,2.376 -3.77,5.192 -2.744,6.29 C -4.857,2.857 -2.542,2.376 0,0"
           style="fill:#e83d2c;fill-opacity:1;fill-rule:nonzero;stroke:none"
           id="path119" /></g><g
         id="g121"
         transform="translate(42.6708,75.549)"><path
           d="m 0,0 c 0,-1.585 -2.041,-3.021 -3.608,-3.021 -2.007,0 -3.859,1.776 -3.859,3.838 0,2.625 1.715,3.145 3.082,3.145 C -2.378,3.962 0,1.683 0,0"
           style="fill:#e83d2c;fill-opacity:1;fill-rule:nonzero;stroke:none"
           id="path123" /></g><g
         id="g125"
         transform="translate(35.8977,72.8522)"><path
           d="M 0,0 C 1.314,-1.69 1.333,-3.95 0.207,-4.743 -1.536,-5.971 -2.622,-4.751 -3.936,-3.061 -5.251,-1.37 -5.435,0.685 -4.348,1.53 -3.261,2.375 -1.314,1.69 0,0"
           style="fill:#e83d2c;fill-opacity:1;fill-rule:nonzero;stroke:none"
           id="path127" /></g><g
         id="g129"
         transform="translate(31.646,59.7613)"><path
           d="m 0,0 c -0.484,0.119 -2.83,4.427 -4.749,2.732 -2.174,-1.922 2.734,-7.186 5.18,-7.186 1.368,0 2.477,0.914 2.477,2.042 C 2.908,-0.954 1.056,-0.26 0,0"
           style="fill:#e83d2c;fill-opacity:1;fill-rule:nonzero;stroke:none"
           id="path131" /></g><g
         id="g133"
         transform="translate(39.4632,61.8289)"><path
           d="m 0,0 c 1.064,0 5.046,-5.324 5.046,-8.123 0,-3.814 -6.368,-2.887 -7.511,-0.545 -1.371,2.807 0.802,5.713 1.621,7.085 C -0.617,-1.204 -1.313,0 0,0"
           style="fill:#e83d2c;fill-opacity:1;fill-rule:nonzero;stroke:none"
           id="path135" /></g><g
         id="g137"
         transform="translate(44.3338,72.8465)"><path
           d="m 0,0 c 3.142,0 6.526,-6.003 6.526,-10.635 0,-5.218 -2.413,-5.706 -4.069,-5.706 -3.088,0 -4.444,3.562 -3.504,7.458 0.543,2.256 10e-4,2.8 -0.222,2.8 -0.564,0 -4.109,-3.223 -6.171,-1.636 -1.448,1.114 0.853,4.416 2.847,5.987 C -2.749,-0.28 -1.39,0 0,0"
           style="fill:#e83d2c;fill-opacity:1;fill-rule:nonzero;stroke:none"
           id="path139" /></g><g
         id="g141"
         transform="translate(57.344,59.8724)"><path
           d="m 0,0 c 0,-2.105 -0.735,-2.374 -1.368,-2.374 -1.356,0 -2.542,1.245 -2.421,3.018 C -3.694,2.033 -4.705,3.22 -4.081,3.85 -3.475,4.463 0,2.625 0,0"
           style="fill:#5fc3ab;fill-opacity:1;fill-rule:nonzero;stroke:none"
           id="path143" /></g><g
         id="g145"
         transform="translate(49.3091,54.6226)"><path
           d="M 0,0 C 1.229,0.841 3.463,2.022 4.651,-1.704 5.84,-5.431 6.155,-5.855 5.459,-6.451 4.691,-7.108 2.752,-6.031 0.011,-5.449 -1.97,-5.028 -2.163,-1.48 0,0"
           style="fill:#e83d2c;fill-opacity:1;fill-rule:nonzero;stroke:none"
           id="path147" /></g><g
         id="g149"
         transform="translate(61.1369,53.5818)"><path
           d="M 0,0 C 0.718,-1.755 0.48,-3.513 -0.532,-3.927 -1.543,-4.341 -2.872,-4.265 -3.589,-2.51 -3.902,-1.746 -3.73,-1.105 -3.951,0.089 -4.149,1.153 -3.9,2.08 -3.329,2.314 -2.317,2.728 -0.718,1.755 0,0"
           style="fill:#5fc3ab;fill-opacity:1;fill-rule:nonzero;stroke:none"
           id="path151" /></g><g
         id="g153"
         transform="translate(56.9093,46.1603)"><path
           d="M 0,0 C 1.261,0.251 5.283,0.775 5.117,-0.47 4.868,-2.335 2.627,-6.115 1.492,-6.253 -0.273,-6.469 -2.24,-4.491 -2.065,-2.477 -1.916,-0.757 -1.261,-0.251 0,0"
           style="fill:#5fc3ab;fill-opacity:1;fill-rule:nonzero;stroke:none"
           id="path155" /></g><g
         id="g157"
         transform="translate(39.5637,33.0856)"><path
           d="M 0,0 C 2.713,1.709 4.952,4.501 4.195,5.618 3.407,6.78 0.659,6.355 -2.054,4.646 -4.336,3.209 -6.834,1.343 -5.63,-0.569 -4.892,-1.741 -2.713,-1.709 0,0"
           style="fill:#c92679;fill-opacity:1;fill-rule:nonzero;stroke:none"
           id="path159" /></g><g
         id="g161"
         transform="translate(46.1461,23.7239)"><path
           d="M 0,0 C 0.127,1.455 -1.631,2.938 -3.07,3.063 -4.912,3.225 -6.755,1.743 -6.921,-0.151 -7.131,-2.56 -5.599,-3.176 -4.344,-3.285 -2.501,-3.447 -0.135,-1.545 0,0"
           style="fill:#c92679;fill-opacity:1;fill-rule:nonzero;stroke:none"
           id="path163" /></g><g
         id="g165"
         transform="translate(40.5262,27.1069)"><path
           d="M 0,0 C 1.387,1.346 1.688,3.363 0.781,4.213 -0.623,5.529 -1.746,4.575 -3.133,3.23 -4.52,1.884 -4.943,0.07 -4.078,-0.821 -3.213,-1.713 -1.387,-1.346 0,0"
           style="fill:#c92679;fill-opacity:1;fill-rule:nonzero;stroke:none"
           id="path167" /></g><g
         id="g169"
         transform="translate(38.9153,39.6457)"><path
           d="M 0,0 C -0.458,-0.03 -3.28,-3.554 -4.745,-1.707 -6.285,0.235 -1.213,4.381 1.111,3.966 2.351,3.745 3.208,2.737 3.025,1.715 2.789,0.394 0.999,0.065 0,0"
           style="fill:#c92679;fill-opacity:1;fill-rule:nonzero;stroke:none"
           id="path171" /></g><g
         id="g173"
         transform="translate(45.6445,36.3588)"><path
           d="M 0,0 C 0.965,-0.17 5.431,4.024 5.879,6.564 6.489,10.025 0.562,10.204 -0.85,8.261 -2.543,5.933 -1.036,2.947 -0.512,1.572 -0.368,1.191 -1.191,0.21 0,0"
           style="fill:#c92679;fill-opacity:1;fill-rule:nonzero;stroke:none"
           id="path175" /></g><g
         id="g177"
         transform="translate(48.1612,25.6079)"><path
           d="M 0,0 C 2.849,-0.502 6.877,4.399 7.618,8.6 8.452,13.33 6.342,14.159 4.841,14.424 2.04,14.918 0.242,11.905 0.47,8.222 0.603,6.089 0.024,5.683 -0.178,5.719 -0.689,5.809 -3.389,9.298 -5.512,8.189 -7.003,7.41 -5.444,4.048 -3.887,2.305 -2.448,0.693 -1.26,0.222 0,0"
           style="fill:#c92679;fill-opacity:1;fill-rule:nonzero;stroke:none"
           id="path179" /></g><g
         id="g181"
         transform="translate(106.9891,87.1261)"><path
           d="m 0,0 c -1.623,0.851 -4.491,-0.1 -7.54,-1.529 -3.187,-1.493 -6.408,-3.188 -6.02,-4.253 0.433,-1.188 2.755,-1.038 4.961,-0.371 1.158,0.349 2.161,1.011 3.803,1.543 4.575,1.484 4.667,-2.435 5.425,-2.585 0.853,-0.17 1.329,1.966 1.297,3.737 C 1.9,-1.943 1.582,-0.829 0,0"
           style="fill:#a6d021;fill-opacity:1;fill-rule:nonzero;stroke:none"
           id="path183" /></g><g
         id="g185"
         transform="translate(102.88,80.228)"><path
           d="m 0,0 c -1.991,0.093 -3.798,-1.886 -2.89,-5.832 0.684,-2.971 2.334,-5.138 3.193,-5.138 1.189,0 0.644,2.939 1.302,5.393 C 2.088,-3.78 3.57,-0.166 0,0"
           style="fill:#ef8625;fill-opacity:1;fill-rule:nonzero;stroke:none"
           id="path187" /></g><g
         id="g189"
         transform="translate(95.2088,66.5966)"><path
           d="m 0,0 c -2.542,-2.376 -4.357,-5.81 -3.321,-6.846 1.077,-1.077 3.919,-0.061 6.46,2.315 2.542,2.376 3.77,5.192 2.744,6.29 C 4.857,2.857 2.542,2.376 0,0"
           style="fill:#e83d2c;fill-opacity:1;fill-rule:nonzero;stroke:none"
           id="path191" /></g><g
         id="g193"
         transform="translate(86.1183,75.549)"><path
           d="m 0,0 c 0,-1.585 2.041,-3.021 3.608,-3.021 2.007,0 3.859,1.776 3.859,3.838 0,2.625 -1.715,3.145 -3.082,3.145 C 2.378,3.962 0,1.683 0,0"
           style="fill:#e83d2c;fill-opacity:1;fill-rule:nonzero;stroke:none"
           id="path195" /></g><g
         id="g197"
         transform="translate(92.8914,72.8522)"><path
           d="M 0,0 C -1.314,-1.69 -1.333,-3.95 -0.207,-4.743 1.536,-5.971 2.622,-4.751 3.936,-3.061 5.251,-1.37 5.435,0.685 4.348,1.53 3.261,2.375 1.314,1.69 0,0"
           style="fill:#e83d2c;fill-opacity:1;fill-rule:nonzero;stroke:none"
           id="path199" /></g><g
         id="g201"
         transform="translate(97.143,59.7613)"><path
           d="m 0,0 c 0.484,0.119 2.83,4.427 4.749,2.732 2.174,-1.922 -2.734,-7.186 -5.18,-7.186 -1.368,0 -2.477,0.914 -2.477,2.042 0,1.458 1.852,2.152 2.908,2.412"
           style="fill:#e83d2c;fill-opacity:1;fill-rule:nonzero;stroke:none"
           id="path203" /></g><g
         id="g205"
         transform="translate(89.3259,61.8289)"><path
           d="m 0,0 c -1.064,0 -5.046,-5.324 -5.046,-8.123 0,-3.814 6.368,-2.887 7.511,-0.545 1.371,2.807 -0.802,5.713 -1.621,7.085 C 0.617,-1.204 1.313,0 0,0"
           style="fill:#e83d2c;fill-opacity:1;fill-rule:nonzero;stroke:none"
           id="path207" /></g><g
         id="g209"
         transform="translate(84.4552,72.8465)"><path
           d="m 0,0 c -3.142,0 -6.526,-6.003 -6.526,-10.635 0,-5.218 2.413,-5.706 4.069,-5.706 3.088,0 4.444,3.562 3.504,7.458 -0.543,2.256 -10e-4,2.8 0.222,2.8 0.564,0 4.109,-3.223 6.171,-1.636 1.448,1.114 -0.853,4.416 -2.847,5.987 C 2.749,-0.28 1.39,0 0,0"
           style="fill:#e83d2c;fill-opacity:1;fill-rule:nonzero;stroke:none"
           id="path211" /></g><g
         id="g213"
         transform="translate(71.4451,59.8724)"><path
           d="m 0,0 c 0,-2.105 0.735,-2.374 1.368,-2.374 1.356,0 2.542,1.245 2.421,3.018 C 3.694,2.033 4.705,3.22 4.081,3.85 3.475,4.463 0,2.625 0,0"
           style="fill:#5fc3ab;fill-opacity:1;fill-rule:nonzero;stroke:none"
           id="path215" /></g><g
         id="g217"
         transform="translate(79.4799,54.6226)"><path
           d="m 0,0 c -1.229,0.841 -3.463,2.022 -4.651,-1.704 -1.189,-3.727 -1.504,-4.151 -0.808,-4.747 0.768,-0.657 2.707,0.42 5.448,1.002 C 1.97,-5.028 2.163,-1.48 0,0"
           style="fill:#e83d2c;fill-opacity:1;fill-rule:nonzero;stroke:none"
           id="path219" /></g><g
         id="g221"
         transform="translate(67.6521,53.5818)"><path
           d="M 0,0 C -0.718,-1.755 -0.48,-3.513 0.532,-3.927 1.543,-4.341 2.872,-4.265 3.589,-2.51 3.902,-1.746 3.73,-1.105 3.951,0.089 4.149,1.153 3.9,2.08 3.329,2.314 2.317,2.728 0.718,1.755 0,0"
           style="fill:#5fc3ab;fill-opacity:1;fill-rule:nonzero;stroke:none"
           id="path223" /></g><g
         id="g225"
         transform="translate(71.8798,46.1603)"><path
           d="m 0,0 c -1.261,0.251 -5.283,0.775 -5.117,-0.47 0.249,-1.865 2.49,-5.645 3.625,-5.783 1.765,-0.216 3.732,1.762 3.557,3.776 C 1.916,-0.757 1.261,-0.251 0,0"
           style="fill:#5fc3ab;fill-opacity:1;fill-rule:nonzero;stroke:none"
           id="path227" /></g><g
         id="g229"
         transform="translate(89.2254,33.0856)"><path
           d="M 0,0 C -2.713,1.709 -4.952,4.501 -4.195,5.618 -3.407,6.78 -0.659,6.355 2.054,4.646 4.336,3.209 6.834,1.343 5.63,-0.569 4.892,-1.741 2.713,-1.709 0,0"
           style="fill:#c92679;fill-opacity:1;fill-rule:nonzero;stroke:none"
           id="path231" /></g><g
         id="g233"
         transform="translate(82.6429,23.7239)"><path
           d="M 0,0 C -0.127,1.455 1.631,2.938 3.07,3.063 4.912,3.225 6.755,1.743 6.921,-0.151 7.131,-2.56 5.599,-3.176 4.344,-3.285 2.501,-3.447 0.135,-1.545 0,0"
           style="fill:#c92679;fill-opacity:1;fill-rule:nonzero;stroke:none"
           id="path235" /></g><g
         id="g237"
         transform="translate(88.2628,27.1069)"><path
           d="M 0,0 C -1.387,1.346 -1.688,3.363 -0.781,4.213 0.623,5.529 1.746,4.575 3.133,3.23 4.52,1.884 4.943,0.07 4.078,-0.821 3.213,-1.713 1.387,-1.346 0,0"
           style="fill:#c92679;fill-opacity:1;fill-rule:nonzero;stroke:none"
           id="path239" /></g><g
         id="g241"
         transform="translate(89.8737,39.6457)"><path
           d="M 0,0 C 0.458,-0.03 3.28,-3.554 4.745,-1.707 6.285,0.235 1.213,4.381 -1.111,3.966 -2.351,3.745 -3.208,2.737 -3.025,1.715 -2.789,0.394 -0.999,0.065 0,0"
           style="fill:#c92679;fill-opacity:1;fill-rule:nonzero;stroke:none"
           id="path243" /></g><g
         id="g245"
         transform="translate(83.1446,36.3588)"><path
           d="m 0,0 c -0.965,-0.17 -5.431,4.024 -5.879,6.564 -0.61,3.461 5.317,3.64 6.729,1.697 C 2.543,5.933 1.036,2.947 0.512,1.572 0.368,1.191 1.191,0.21 0,0"
           style="fill:#c92679;fill-opacity:1;fill-rule:nonzero;stroke:none"
           id="path247" /></g><g
         id="g249"
         transform="translate(80.6279,25.6079)"><path
           d="m 0,0 c -2.849,-0.502 -6.877,4.399 -7.618,8.6 -0.834,4.73 1.276,5.559 2.777,5.824 2.801,0.494 4.599,-2.519 4.371,-6.202 C -0.603,6.089 -0.024,5.683 0.178,5.719 0.689,5.809 3.389,9.298 5.512,8.189 7.003,7.41 5.444,4.048 3.887,2.305 2.448,0.693 1.26,0.222 0,0"
           style="fill:#c92679;fill-opacity:1;fill-rule:nonzero;stroke:none"
           id="path251" /></g><g
         id="g253"
         transform="translate(290.2341,35.054)"><path
           d="m 0,0 v 20.894 h -3.438 c -1.279,0 -2.182,-0.342 -2.711,-1.025 -0.529,-0.684 -0.794,-1.51 -0.794,-2.479 V 0.066 c 0,-1.014 0.253,-1.851 0.761,-2.512 0.506,-0.662 1.421,-0.992 2.744,-0.992 1.233,0 2.159,0.374 2.777,1.124 C -0.221,-1.742 0,-0.97 0,0 M 7.009,27.837 V 0 c 0,-2.557 -0.772,-4.805 -2.315,-6.744 -1.94,-2.469 -4.651,-3.703 -8.132,-3.703 -3.483,0 -6.172,1.212 -8.067,3.637 -1.587,2.027 -2.38,4.298 -2.38,6.81 v 17.39 c 0,2.6 0.77,4.87 2.314,6.81 1.895,2.424 4.605,3.637 8.133,3.637 H 0 c 0,1.278 -0.342,2.182 -1.025,2.711 -0.684,0.529 -1.488,0.793 -2.413,0.793 h -3.505 c -0.925,0 -1.741,0.331 -2.446,0.992 -0.706,0.661 -1.058,1.476 -1.058,2.446 0,1.014 0.331,1.852 0.992,2.513 0.661,0.661 1.498,0.992 2.512,0.992 h 3.505 c 2.556,0 4.804,-0.772 6.744,-2.315 2.468,-1.94 3.703,-4.651 3.703,-8.132"
           style="fill:#231f20;fill-opacity:1;fill-rule:nonzero;stroke:none"
           id="path255" /></g><g
         id="g257"
         transform="translate(321.7729,62.8906)"><path
           d="m 0,0 v -3.438 c 0,-0.97 -0.342,-1.797 -1.025,-2.48 -0.684,-0.684 -1.51,-1.025 -2.48,-1.025 -0.97,0 -1.796,0.341 -2.479,1.025 -0.684,0.683 -1.025,1.51 -1.025,2.48 V 0 c 0,0.969 -0.221,1.741 -0.661,2.314 -0.618,0.794 -1.543,1.191 -2.777,1.191 -1.279,0 -2.182,-0.343 -2.711,-1.025 C -13.687,1.796 -13.951,0.969 -13.951,0 v -6.876 c 0,-1.015 0.253,-1.863 0.76,-2.546 0.506,-0.684 1.422,-1.025 2.744,-1.025 3.481,0 6.171,-1.213 8.067,-3.636 1.586,-1.984 2.38,-4.255 2.38,-6.811 v -6.943 c 0,-2.557 -0.772,-4.805 -2.314,-6.744 -1.941,-2.469 -4.652,-3.702 -8.133,-3.702 -3.483,0 -6.172,1.211 -8.067,3.636 -1.587,2.027 -2.38,4.298 -2.38,6.81 v 3.505 c 0,0.969 0.331,1.785 0.992,2.446 0.661,0.661 1.476,0.992 2.446,0.992 0.926,0 1.741,-0.331 2.447,-0.992 0.704,-0.661 1.058,-1.477 1.058,-2.446 v -3.438 c 0,-1.015 0.253,-1.852 0.76,-2.513 0.506,-0.661 1.422,-0.992 2.744,-0.992 1.234,0 2.159,0.374 2.777,1.124 0.44,0.573 0.661,1.344 0.661,2.314 v 6.943 c 0,0.969 -0.221,1.741 -0.661,2.314 -0.618,0.794 -1.543,1.191 -2.777,1.191 -3.483,0 -6.172,1.211 -8.067,3.636 -1.587,1.984 -2.38,4.254 -2.38,6.81 V 0 c 0,2.601 0.771,4.87 2.314,6.811 1.895,2.423 4.606,3.636 8.133,3.636 3.481,0 6.171,-1.213 8.067,-3.636 C -0.794,4.827 0,2.556 0,0"
           style="fill:#231f20;fill-opacity:1;fill-rule:nonzero;stroke:none"
           id="path259" /></g><g
         id="g261"
         transform="translate(332.4177,59.4525)"><path
           d="m 0,0 v -31.341 c 0,-0.97 -0.342,-1.797 -1.025,-2.48 -0.684,-0.684 -1.51,-1.024 -2.48,-1.024 -0.97,0 -1.796,0.34 -2.479,1.024 -0.684,0.683 -1.025,1.51 -1.025,2.48 V 0 c 0,0.969 0.331,1.785 0.992,2.446 0.661,0.662 1.498,0.992 2.512,0.992 0.926,0 1.741,-0.33 2.447,-0.992 C -0.353,1.785 0,0.969 0,0 M 0,10.381 C 0,9.411 -0.331,8.596 -0.992,7.934 -1.653,7.273 -2.491,6.943 -3.505,6.943 c -0.925,0 -1.741,0.33 -2.446,0.991 -0.706,0.662 -1.058,1.477 -1.058,2.447 0,1.013 0.331,1.851 0.992,2.512 0.661,0.662 1.498,0.992 2.512,0.992 0.97,0 1.796,-0.342 2.48,-1.025 C -0.342,12.176 0,11.35 0,10.381"
           style="fill:#231f20;fill-opacity:1;fill-rule:nonzero;stroke:none"
           id="path263" /></g><g
         id="g265"
         transform="translate(349.9384,35.054)"><path
           d="m 0,0 v 20.894 h -3.438 c -1.279,0 -2.182,-0.342 -2.711,-1.025 -0.529,-0.684 -0.794,-1.51 -0.794,-2.479 V 0.066 c 0,-1.014 0.254,-1.851 0.761,-2.512 0.506,-0.662 1.421,-0.992 2.744,-0.992 1.233,0 2.159,0.374 2.777,1.124 C -0.221,-1.742 0,-0.97 0,0 M 7.009,27.837 V 0 c 0,-2.557 -0.772,-4.805 -2.314,-6.744 -1.941,-2.469 -4.652,-3.703 -8.133,-3.703 -3.483,0 -6.172,1.212 -8.067,3.637 -1.587,2.027 -2.38,4.298 -2.38,6.81 v 17.39 c 0,2.6 0.771,4.87 2.314,6.81 1.895,2.424 4.606,3.637 8.133,3.637 H 0 c 0,1.278 -0.342,2.182 -1.025,2.711 -0.684,0.529 -1.488,0.793 -2.413,0.793 h -3.505 c -0.925,0 -1.741,0.331 -2.446,0.992 -0.706,0.661 -1.058,1.476 -1.058,2.446 0,1.014 0.331,1.852 0.992,2.513 0.661,0.661 1.498,0.992 2.512,0.992 h 3.505 c 2.556,0 4.804,-0.772 6.744,-2.315 2.468,-1.94 3.703,-4.651 3.703,-8.132"
           style="fill:#231f20;fill-opacity:1;fill-rule:nonzero;stroke:none"
           id="path267" /></g></g></g></svg>
